# xmcd
#
# Track frame offsets: 
#        150
#        13114
#        15290
#        30566
#        31986
#        47958
#        49826
#        64894
#        78446
#        79962
#        95014
#        97194
#        112738
#        114210
#        128902
#        143446
#
# Disc length: 1918 seconds
#
# Revision: 0
# Processed by: cddbd v1.5.2PL0 Copyright (c) Steve Scherf et al.
# Submitted via: ExactAudioCopy v0.99pb5
#
DISCID=c7077c10
DTITLE=Highlands Country - June 26, 2011
DYEAR=2011
DGENRE=Country
TTITLE0=Down At The Cross (partial)
TTITLE1=Talking
TTITLE2=Just A Closer Walk With Thee
TTITLE3=Welcome
TTITLE4=Learn To Live
TTITLE5=Talking
TTITLE6=A Few Questions
TTITLE7=Down At The Cross
TTITLE8=Talking
TTITLE9=Just A Closer Walk With Thee
TTITLE10=Welcome
TTITLE11=Learn To Live
TTITLE12=Talking
TTITLE13=A Few Questions
TTITLE14=He Believed
TTITLE15=CYA
EXTD=
EXTT0=
EXTT1=
EXTT2=
EXTT3=
EXTT4=
EXTT5=
EXTT6=
EXTT7=
EXTT8=
EXTT9=
EXTT10=
EXTT11=
EXTT12=
EXTT13=
EXTT14=
EXTT15=
PLAYORDER=
